<?xml version="1.0" encoding="UTF-8"?>
<svg id="Layer_1" xmlns="http://www.w3.org/2000/svg" version="1.1" viewBox="0 0 400 140">
  <!-- Generator: Adobe Illustrator 29.8.2, SVG Export Plug-In . SVG Version: 2.1.1 Build 3)  -->
  <defs>
    <style>
      .st0 {
        fill: #8fc2b1;
      }

      .st1 {
        fill: #486159;
      }
    </style>
  </defs>
  <g>
    <path d="M61.35,61.84c3.28,6.78,7.36,13.19,12.17,19.02h-18.58c-.44-4.45-1.6-8.82-3.35-12.97h-26.82l-1.09,2.19c-1.6,3.35-2.33,7.07-2.11,10.79h-9.47c4.15-4.52,7.65-9.69,10.35-15.23l10.93-22.74c1.97-4.15,1.97-8.96-.07-13.12h12.61l15.45,31.99v.07ZM50.13,64.61l-11.81-24.63-11.95,24.63h23.76Z"/>
    <path d="M148.21,73.57c2.19,2.99,5.03,5.47,8.31,7.21h-12.53c-2.99,0-5.76-1.38-7.51-3.79l-8.96-13.12c-1.38-1.46-2.84-3.13-5.76-3.13-4.01,0-6.19,2.19-6.19,6.19v2.55c0,6.49,1.97,9.91,2.77,11l.29.36h-17.56l.29-.36c.8-1.09,2.77-4.52,2.77-11v-28.42c0-7.94-3.06-11.3-3.06-11.3h33.89c4.45,0,8.45,1.75,11.37,4.66,2.91,2.91,4.74,6.92,4.74,11.37,0,8.09-6.05,14.06-13.85,14.94,1.6.66,2.99,1.75,4.08,3.21l7,9.55-.07.07ZM127.22,57.62c6.78,0,12.32-4.96,12.32-11.73s-5.54-12.83-12.32-12.83h-11.81l.07,24.56h11.81-.07Z"/>
    <path d="M218.09,77.58c4.96,0,9.69-3.5,13.19-7v10.2h-46.57l.29-.36c.8-1.09,2.77-4.52,2.77-11v-28.42c0-.51,0-1.02-.07-1.46-.36-6.92-3.06-9.84-3.06-9.84h44.02v10.2c-3.5-3.5-8.23-7-13.19-7h-16.4v20.26h14.43c4.01,0,8.02-1.68,11.59-3.5v10.2h-.07c-3.57-1.75-7.51-3.43-11.51-3.43h-14.5v21.13h19.09Z"/>
    <path d="M311.07,29.92v10.2c-3.5-3.5-8.23-7-13.19-7h-7.14v36.66c0,.66,0,1.31.07,1.97v.22c.44,4.96,2.04,7.65,2.7,8.53l.29.36h-17.49l.29-.36c.8-1.09,2.77-4.52,2.77-11l.07-36.51h-7.21c-4.96,0-9.69,3.5-13.19,7v-10.2l52.03.15Z"/>
    <path d="M373.01,77.58c4.96,0,9.69-3.5,13.19-7v10.2h-46.57l.29-.36c.8-1.09,2.77-4.52,2.77-11v-28.42c0-.51,0-1.02-.07-1.46-.36-6.92-3.06-9.84-3.06-9.84h44.02v10.2c-3.5-3.5-8.23-7-13.19-7h-16.4v20.26h14.43c4.01,0,8.02-1.68,11.59-3.5v10.2h-.07c-3.57-1.75-7.51-3.43-11.51-3.43h-14.5v21.13h19.09Z"/>
  </g>
  <g>
    <path d="M97.57,108.93h3.13c-1.38,1.51-2.55,3.23-3.45,5.08l-5.73,11.92h-4.2l-5.12-10.66c-1.09-2.26-2.45-4.37-4.06-6.31h6.19c.17,1.72.63,3.4,1.38,4.95l5.22,10.86,5.9-12.19c.53-1.12.78-2.36.73-3.59v-.05Z"/>
    <path d="M125.82,124.91c1.65,0,3.23-1.17,4.4-2.33v3.4h-15.52l.1-.12c.27-.36.92-1.51.92-3.67v-9.47c0-.17,0-.34-.02-.49-.12-2.31-1.02-3.28-1.02-3.28h14.67v3.4c-1.17-1.17-2.74-2.33-4.4-2.33h-5.46v6.75h4.81c1.34,0,2.67-.56,3.86-1.17v3.4h-.02c-1.19-.58-2.5-1.14-3.84-1.14h-4.83v7.04h6.36Z"/>
    <path d="M162.87,108.98s-1.02,1.12-1.02,3.76v13.24h-2.02c-.58,0-1.14-.27-1.51-.73l-11.34-14.64v11.61c0,2.16.66,3.3.92,3.67l.1.12h-3.11l.1-.12c.27-.36.92-1.51.92-3.67v-9.47c0-2.65-1.02-3.76-1.02-3.76h4.69c.58,0,1.14.27,1.51.73l9.69,12.53v-9.5c0-2.65-1.02-3.76-1.02-3.76h3.11Z"/>
    <path d="M194.42,109.03v3.4c-1.17-1.17-2.74-2.33-4.4-2.33h-2.38v12.22c0,.22,0,.44.02.66v.07c.15,1.65.68,2.55.9,2.84l.1.12h-5.83l.1-.12c.27-.36.92-1.51.92-3.67l.02-12.17h-2.4c-1.65,0-3.23,1.17-4.4,2.33v-3.4l17.34.05Z"/>
    <path d="M223.93,109h3.08l-.1.12c-.22.29-.75,1.19-.9,2.84v.07c-.02.22-.02,6.29-.02,6.29,0,5.39-3.67,8.11-8.14,8.11-2.23,0-4.57-.9-6.02-2.36-1.46-1.46-2.33-3.52-2.33-5.76v-5.56c0-2.16-.66-3.3-.92-3.67l-.1-.12h5.8l-.1.12c-.22.29-.75,1.19-.9,2.84v.07c-.02.22-.02.44-.02.66v5.97c0,3.25,2.28,6.73,5.54,6.73,3.67,0,6.1-3.23,6.1-6.73v-6.46c0-1.58-.66-2.72-.92-3.08l-.1-.12.05.02Z"/>
    <path d="M257.34,123.57c.73,1,1.68,1.82,2.77,2.4h-4.18c-1,0-1.92-.46-2.5-1.26l-2.99-4.37c-.46-.49-.95-1.04-1.92-1.04-1.34,0-2.06.73-2.06,2.06v.85c0,2.16.66,3.3.92,3.67l.1.12h-5.85l.1-.12c.27-.36.92-1.51.92-3.67v-9.47c0-2.65-1.02-3.76-1.02-3.76h11.29c1.48,0,2.82.58,3.79,1.55.97.97,1.58,2.31,1.58,3.79,0,2.7-2.02,4.69-4.61,4.98.53.22,1,.58,1.36,1.07l2.33,3.18-.02.02ZM250.35,118.25c2.26,0,4.1-1.65,4.1-3.91s-1.85-4.27-4.1-4.27h-3.93l.02,8.18h3.93-.02Z"/>
    <path d="M285.49,124.91c1.65,0,3.23-1.17,4.4-2.33v3.4h-15.52l.1-.12c.27-.36.92-1.51.92-3.67v-9.47c0-.17,0-.34-.02-.49-.12-2.31-1.02-3.28-1.02-3.28h14.67v3.4c-1.17-1.17-2.74-2.33-4.4-2.33h-5.46v6.75h4.81c1.34,0,2.67-.56,3.86-1.17v3.4h-.02c-1.19-.58-2.5-1.14-3.84-1.14h-4.83v7.04h6.36Z"/>
    <path d="M312.47,115.97c4.08.66,7.67,1.85,7.67,5.2,0,3.74-4.01,5.27-7.97,5.27-2.62,0-5.85-1.24-7.09-3.3-.61-1,.17-2.28,1.31-2.28h1.8c0,3.59,2.23,4.57,4.06,4.57,1.43,0,4.15-.97,4.15-4.27,0-1-2.5-1.89-4.64-2.21-4.08-.66-7.12-2.02-7.12-5.22,0-3.62,4.42-5.05,7.5-5.15,2.33,0,5.97,1.02,7.12,3.64.41.95-.36,2.02-1.38,2.02h-1.92c0-3.67-1.92-4.64-3.76-4.64-1.72,0-3.79.97-3.79,4.08,0,1.58,2.53,2.02,4.08,2.26l-.02.05Z"/>
  </g>
  <g>
    <path class="st0" d="M208.65,15.83l5.89-7.08,9.47,15.5c-1.19.02-2.94-.07-4.94-.65-.42-.12-2.21-.67-4.43-2.06-3.11-1.96-6-5.7-6-5.7Z"/>
    <path class="st1" d="M207.94,15.01l6.04-7.12h-12.07s-9.99,16.36-9.99,16.36c1.19.02,2.94-.07,4.94-.65.42-.12,2.21-.67,4.43-2.06,3.11-1.96,6.66-6.52,6.66-6.52Z"/>
  </g>
</svg>